<svg xmlns="http://www.w3.org/2000/svg" viewBox="0 0 900 760" role="img" aria-labelledby="title desc"><title id="title">Let's build something together</title><desc id="desc">A product designer working with a laptop, cloud services, and digital planning cards.</desc><defs><linearGradient id="bg" x2="1" y2="1"><stop stop-color="#092652"/><stop offset="1" stop-color="#15163a"/></linearGradient><linearGradient id="c" x2="1"><stop stop-color="#08d4ed"/><stop offset="1" stop-color="#615bff"/></linearGradient><pattern id="grid" width="28" height="28" patternUnits="userSpaceOnUse"><path d="M28 0H0v28" fill="none" stroke="#9ec5ff" stroke-opacity=".07"/></pattern></defs><rect width="900" height="760" rx="34" fill="url(#bg)"/><rect width="900" height="760" rx="34" fill="url(#grid)"/><circle cx="756" cy="137" r="120" fill="#653aff" opacity=".13"/><rect x="104" y="96" width="692" height="394" rx="25" fill="#101f3e" stroke="#5270aa" stroke-width="2"/><rect x="130" y="122" width="640" height="342" rx="16" fill="#081931"/><circle cx="157" cy="149" r="6" fill="#ff6785"/><circle cx="178" cy="149" r="6" fill="#ffc552"/><circle cx="199" cy="149" r="6" fill="#36dba8"/><text x="232" y="155" fill="#a9c2e6" font-family="Arial" font-size="13">JTECH / PROJECT SPACE</text><rect x="164" y="190" width="169" height="242" rx="14" fill="#13284b"/><text x="185" y="224" fill="#f3f7ff" font-family="Arial" font-size="17" font-weight="700">Build with clarity</text><rect x="185" y="246" width="122" height="9" rx="4" fill="#28c8eb"/><rect x="185" y="269" width="109" height="7" rx="3" fill="#8fa8cf" opacity=".48"/><rect x="185" y="286" width="124" height="7" rx="3" fill="#8fa8cf" opacity=".32"/><rect x="185" y="322" width="122" height="77" rx="10" fill="#1a3d70"/><path d="M197 382l29-29 22 18 29-31 20 24" fill="none" stroke="url(#c)" stroke-width="4"/><rect x="355" y="190" width="384" height="242" rx="14" fill="#13284b"/><text x="380" y="224" fill="#f3f7ff" font-family="Arial" font-size="17" font-weight="700">Solution architecture</text><path d="M392 312h85m0 0v-42m0 42v42m0-42h94m0 0v-54m0 54v52m0-52h95" stroke="#4e8fe8" stroke-width="3"/><rect x="380" y="251" width="88" height="36" rx="8" fill="#174781"/><rect x="434" y="295" width="91" height="36" rx="8" fill="#1b6c94"/><rect x="545" y="295" width="93" height="36" rx="8" fill="#443e9b"/><rect x="647" y="295" width="70" height="36" rx="8" fill="#28477e"/><g fill="#dcecff" font-family="Arial" font-size="10"><text x="400" y="274">WEB APP</text><text x="453" y="318">API</text><text x="566" y="318">DATA</text><text x="658" y="318">CLOUD</text></g><path d="M167 519h565l55 51H111z" fill="#58729b"/><path d="M253 521h391l-33 30H285z" fill="#0b1830"/><rect x="397" y="540" width="128" height="5" rx="2" fill="#425c84"/><path d="M289 695c8-85 43-129 113-129s105 44 111 129" fill="#1593c6"/><circle cx="401" cy="531" r="47" fill="#935840"/><path d="M355 528c0-42 18-68 48-68 34 0 49 24 47 61-18-7-30-19-37-33-13 20-32 34-58 40Z" fill="#1b2339"/><path d="M324 623l-68-47M470 621l67-48" stroke="#935840" stroke-width="18" stroke-linecap="round"/><rect x="599" y="586" width="197" height="107" rx="16" fill="#172949" stroke="#4374bb"/><circle cx="629" cy="617" r="11" fill="#18d3e9"/><text x="652" y="622" fill="#e5f0ff" font-family="Arial" font-size="13" font-weight="700">Let's build together</text><text x="622" y="655" fill="#9bb3d6" font-family="Arial" font-size="11">From idea to reliable product.</text></svg>